<svg width="630.80101" height="716.13877" xmlns="http://www.w3.org/2000/svg">

 <g>
  <title>background</title>
  <rect fill="none" id="canvas_background" height="718.13877" width="632.80101" y="-1" x="-1"/>
 </g>
 <g>
  <title>Layer 1</title>
  <g id="svg_1">
   <path id="svg_2" fill="#f28b2b" d="m315.401,0l-54.548,99.275c-5.274,9.495 -16.917,13.434 -26.909,9.09l-46.183,-19.637l25.577,163.639c1.366,8.938 -9.362,14.39 -15.879,8.123l-72.244,-70.184l-11.031,32.364c-4.097,11.916 -16.744,18.799 -28.971,15.759l-72.121,-18.061l20.606,100.122c2.358,11.482 -3.747,23.048 -14.546,27.517l-19.152,7.757l141.215,124.851c10.179,9.061 14.617,22.841 11.637,36.121l-8.242,37.214l133.699,-17.577c13.343,-1.738 25.159,8.84 24.848,22.183l-3.392,155.155l15.636,0l15.635,0l-3.392,-155.155c-0.248,-13.405 11.568,-23.983 24.848,-22.183l133.578,17.577l-8.242,-37.214c-2.855,-13.218 1.7,-27.06 11.878,-36.121l141.095,-124.851l-37.698,-15.516l24.607,-120.002l-93.701,23.516l-18.302,-53.456l-72.243,70.184c-6.456,6.329 -17.244,0.815 -15.88,-8.123l25.575,-163.639l-46.181,19.637c-10.054,4.282 -21.697,0.405 -26.91,-9.09l-54.667,-99.275z"/>
  </g>
  <text id="svg_3" font-family="'Helvetica Neue', Helvetica, Arial-Unicode, Arial, Sans-serif" font-weight="bold" font-size="5px" fill="#000000" y="728.71102" x="0">Created by Hopkins</text>
  <text id="svg_4" font-family="'Helvetica Neue', Helvetica, Arial-Unicode, Arial, Sans-serif" font-weight="bold" font-size="5px" fill="#000000" y="733.71102" x="0">from the Noun Project</text>
 </g>
</svg>